# xmcd
#
# Track frame offsets:
#	150
#	16272
#	33585
#	48921
#	65595
#	78355
#	97388
#	107910
#	120291
#	141059
#	159796
#	175790
#	195272
#	213885
#	228292
#	249384
#
# Disc length: 3534 seconds
#
# Revision: 1
# Processed by: cddbd v1.5.2PL0 Copyright (c) Steve Scherf et al.
# Submitted via: audiograbber 1.83.01
#
DISCID=c60dcc10
DTITLE=Alabama - Classic Christmas
DYEAR=1900
DGENRE=
TTITLE0=Christmas In Dixie
TTITLE1=A Candle In The Window
TTITLE2=Christmas In Your Arms
TTITLE3=Tennessee Christmas
TTITLE4=When It Comes To Christmas
TTITLE5=The Night Before Christmas
TTITLE6=Hangin' Round The Misletoe
TTITLE7=New Year's Eve 1999
TTITLE8=The Blessings
TTITLE9=Angels Among Us
TTITLE10=I Was Young Once
TTITLE11=Tonight Is Christmas
TTITLE12=Joseph and Mary's Boy
TTITLE13=O Little Town Of Bethlehem
TTITLE14=The Little Drummer Boy
TTITLE15=Silent Night
EXTD=
EXTT0=
EXTT1=
EXTT2=
EXTT3=
EXTT4=
EXTT5=
EXTT6=
EXTT7=
EXTT8=
EXTT9=
EXTT10=
EXTT11=
EXTT12=
EXTT13=
EXTT14=
EXTT15=
PLAYORDER=
